<svg width="12" height="20" viewBox="0 0 12 20" fill="none" xmlns="http://www.w3.org/2000/svg">
<path d="M10.835 9.14868L10.835 9.14864L3.09527 1.40903C2.50533 0.819092 1.54879 0.819028 0.958992 1.40903L10.835 9.14868ZM10.835 9.14868C11.1295 9.44337 11.2772 9.8303 11.2772 10.2165C11.2772 10.6025 11.1299 10.9895 10.8353 11.2843L10.8352 11.2844L3.09555 19.0239C3.09554 19.0239 3.09552 19.0239 3.09551 19.0239C2.50557 19.6141 1.54904 19.6141 0.959237 19.0239C0.369432 18.4341 0.369494 17.4779 0.959194 16.8879L0.959232 16.8879L7.63071 10.2165L0.958997 3.5452L0.958949 3.54515C0.369269 2.95518 0.369196 1.99887 0.958956 1.40907L10.835 9.14868Z" fill="#1A1A1A" stroke="#1A1A1A" stroke-width="0.5"/>
</svg>
